<svg width="9" height="8" viewBox="0 0 9 8" fill="none" xmlns="http://www.w3.org/2000/svg">
<path fill-rule="evenodd" clip-rule="evenodd" d="M4.10479 0.793859C4.28983 0.588887 4.606 0.572732 4.81097 0.757776L8.20551 3.82229C8.31053 3.9171 8.37046 4.05195 8.37046 4.19343C8.37046 4.3349 8.31053 4.46976 8.20551 4.56456L4.81097 7.62908C4.606 7.81412 4.28983 7.79797 4.10479 7.59299C3.91974 7.38802 3.9359 7.07185 4.14087 6.88681L6.57046 4.69343H0.515625C0.239483 4.69343 0.015625 4.46957 0.015625 4.19343C0.015625 3.91728 0.239483 3.69343 0.515625 3.69343H6.57046L4.14087 1.50004C3.9359 1.315 3.91974 0.99883 4.10479 0.793859Z" fill="white"/>
</svg>
