<svg width="39" height="56" viewBox="0 0 39 56" fill="none" xmlns="http://www.w3.org/2000/svg">
<path fill-rule="evenodd" clip-rule="evenodd" d="M1.85059 43.0684V41.0684H36.7312V43.0684H1.85059Z" fill="#7EB693"/>
<path fill-rule="evenodd" clip-rule="evenodd" d="M5.79102 49.5L5.79102 47.5L32.791 47.5L32.791 49.5L5.79102 49.5Z" fill="#7EB693"/>
<path fill-rule="evenodd" clip-rule="evenodd" d="M17.791 1.50001L19.791 1.50001L19.791 15.5L17.791 15.5L17.791 1.50001Z" fill="#7EB693"/>
<path fill-rule="evenodd" clip-rule="evenodd" d="M17.8652 41.2158V14.7842H19.8652V41.2158H17.8652Z" fill="#7EB693"/>
<path fill-rule="evenodd" clip-rule="evenodd" d="M18.1572 14.9306L29.2169 3.84642L30.6327 5.25907L19.573 16.3433L18.1572 14.9306Z" fill="#7EB693"/>
<path fill-rule="evenodd" clip-rule="evenodd" d="M18.1572 23.457L33.4707 8.10961L34.8864 9.52226L19.573 24.8696L18.1572 23.457Z" fill="#7EB693"/>
<path fill-rule="evenodd" clip-rule="evenodd" d="M18.1748 31.966L36.0405 14.9134L37.4214 16.3601L19.5557 33.4127L18.1748 31.966Z" fill="#7EB693"/>
<path fill-rule="evenodd" clip-rule="evenodd" d="M18.1572 41.3621L36.8736 22.6042L38.2894 24.0169L19.573 42.7748L18.1572 41.3621Z" fill="#7EB693"/>
<path fill-rule="evenodd" clip-rule="evenodd" d="M26.665 41.3622L36.874 31.1306L38.2898 32.5433L28.0808 42.7748L26.665 41.3622Z" fill="#7EB693"/>
<path fill-rule="evenodd" clip-rule="evenodd" d="M10.5009 42.7748L0.291992 32.5433L1.70777 31.1306L11.9167 41.3622L10.5009 42.7748Z" fill="#7EB693"/>
<path fill-rule="evenodd" clip-rule="evenodd" d="M18.1299 16.3144L7.9209 5.23022L9.392 3.87528L19.601 14.9595L18.1299 16.3144Z" fill="#7EB693"/>
<path fill-rule="evenodd" clip-rule="evenodd" d="M18.1375 24.8491L3.6748 9.50175L5.13035 8.13011L19.593 23.4775L18.1375 24.8491Z" fill="#7EB693"/>
<path fill-rule="evenodd" clip-rule="evenodd" d="M18.1409 33.3783L1.12598 15.473L2.57578 14.0953L19.5907 32.0006L18.1409 33.3783Z" fill="#7EB693"/>
<path fill-rule="evenodd" clip-rule="evenodd" d="M18.142 41.9056L0.276367 23.1477L1.7246 21.7683L19.5903 40.5262L18.142 41.9056Z" fill="#7EB693"/>
<path fill-rule="evenodd" clip-rule="evenodd" d="M19.291 2.1421C9.77214 2.1421 2 10.1184 2 20.0228V35.9772C2 45.8834 9.77207 53.8579 19.291 53.8579C28.8119 53.8579 36.5838 45.8833 36.5821 35.9774V20.0228C36.5821 10.1184 28.8117 2.1421 19.291 2.1421ZM0 20.0228C0 9.07415 8.60823 0.142103 19.291 0.142103C29.9758 0.142103 38.5821 9.07422 38.5821 20.0228V35.9771C38.5821 35.9771 38.5821 35.977 38.5821 35.9771C38.5839 46.9278 29.9755 55.8579 19.291 55.8579C8.6083 55.8579 0 46.9278 0 35.9772V20.0228Z" fill="#7EB693"/>
</svg>
